<svg width="1241" height="132" viewBox="0 0 1241 132" fill="none" xmlns="http://www.w3.org/2000/svg">
<path d="M11.584 118.807C11.524 119.263 11.392 119.665 11.188 120.013C10.996 120.349 10.756 120.637 10.468 120.877C10.18 121.105 9.856 121.279 9.496 121.399C9.148 121.519 8.776 121.579 8.38 121.579C7.816 121.579 7.312 121.483 6.868 121.291C6.424 121.087 6.046 120.811 5.734 120.463C5.434 120.115 5.2 119.707 5.032 119.239C4.876 118.771 4.798 118.267 4.798 117.727C4.798 117.175 4.876 116.671 5.032 116.215C5.188 115.747 5.41 115.345 5.698 115.009C5.998 114.673 6.37 114.415 6.814 114.235C7.258 114.043 7.768 113.947 8.344 113.947C8.752 113.947 9.136 114.001 9.496 114.109C9.856 114.217 10.18 114.379 10.468 114.595C10.756 114.811 10.996 115.087 11.188 115.423C11.38 115.747 11.512 116.125 11.584 116.557H9.892C9.808 116.137 9.634 115.849 9.37 115.693C9.106 115.537 8.812 115.459 8.488 115.459C7.792 115.459 7.288 115.669 6.976 116.089C6.676 116.509 6.526 117.043 6.526 117.691C6.526 118.027 6.568 118.339 6.652 118.627C6.736 118.915 6.856 119.167 7.012 119.383C7.18 119.599 7.384 119.767 7.624 119.887C7.864 120.007 8.14 120.067 8.452 120.067C8.836 120.067 9.166 119.977 9.442 119.797C9.718 119.605 9.868 119.275 9.892 118.807H11.584ZM1.504 117.781C1.504 116.857 1.678 115.993 2.026 115.189C2.386 114.373 2.866 113.665 3.466 113.065C4.078 112.453 4.786 111.973 5.59 111.625C6.406 111.265 7.276 111.085 8.2 111.085C9.124 111.085 9.988 111.265 10.792 111.625C11.608 111.973 12.316 112.453 12.916 113.065C13.528 113.665 14.008 114.373 14.356 115.189C14.716 115.993 14.896 116.857 14.896 117.781C14.896 118.705 14.716 119.575 14.356 120.391C14.008 121.195 13.528 121.903 12.916 122.515C12.316 123.115 11.608 123.595 10.792 123.955C9.988 124.303 9.124 124.477 8.2 124.477C7.276 124.477 6.406 124.303 5.59 123.955C4.786 123.595 4.078 123.115 3.466 122.515C2.866 121.903 2.386 121.195 2.026 120.391C1.678 119.575 1.504 118.705 1.504 117.781ZM3.232 117.781C3.232 118.501 3.358 119.179 3.61 119.815C3.874 120.439 4.228 120.985 4.672 121.453C5.116 121.921 5.638 122.293 6.238 122.569C6.85 122.833 7.504 122.965 8.2 122.965C8.896 122.965 9.544 122.833 10.144 122.569C10.756 122.293 11.284 121.921 11.728 121.453C12.172 120.985 12.52 120.439 12.772 119.815C13.036 119.179 13.168 118.501 13.168 117.781C13.168 117.061 13.036 116.389 12.772 115.765C12.52 115.129 12.172 114.577 11.728 114.109C11.284 113.641 10.756 113.275 10.144 113.011C9.544 112.735 8.896 112.597 8.2 112.597C7.504 112.597 6.85 112.735 6.238 113.011C5.638 113.275 5.116 113.641 4.672 114.109C4.228 114.577 3.874 115.129 3.61 115.765C3.358 116.389 3.232 117.061 3.232 117.781ZM21.7847 121.867L26.7347 117.079C26.8787 116.935 27.0287 116.785 27.1847 116.629C27.3407 116.461 27.4787 116.287 27.5987 116.107C27.7307 115.927 27.8387 115.741 27.9227 115.549C28.0067 115.345 28.0487 115.135 28.0487 114.919C28.0487 114.655 27.9947 114.421 27.8867 114.217C27.7907 114.013 27.6587 113.839 27.4907 113.695C27.3227 113.551 27.1247 113.443 26.8967 113.371C26.6807 113.287 26.4467 113.245 26.1947 113.245C25.6547 113.245 25.2107 113.401 24.8627 113.713C24.5147 114.025 24.3047 114.445 24.2327 114.973L21.9647 114.793C22.0127 114.205 22.1507 113.689 22.3787 113.245C22.6187 112.789 22.9247 112.411 23.2967 112.111C23.6687 111.811 24.1007 111.583 24.5927 111.427C25.0847 111.271 25.6187 111.193 26.1947 111.193C26.7707 111.193 27.3047 111.271 27.7967 111.427C28.3007 111.571 28.7387 111.793 29.1107 112.093C29.4827 112.381 29.7767 112.753 29.9927 113.209C30.2087 113.665 30.3167 114.199 30.3167 114.811C30.3167 115.615 30.1307 116.311 29.7587 116.899C29.3987 117.475 28.9307 118.027 28.3547 118.555L24.4127 122.209H30.3167V124.153H21.7847V121.867ZM32.095 117.781C32.095 116.773 32.173 115.915 32.329 115.207C32.497 114.487 32.713 113.887 32.977 113.407C33.241 112.915 33.535 112.525 33.859 112.237C34.195 111.937 34.531 111.715 34.867 111.571C35.215 111.415 35.545 111.313 35.857 111.265C36.181 111.217 36.463 111.193 36.703 111.193C36.943 111.193 37.219 111.217 37.531 111.265C37.855 111.313 38.185 111.415 38.521 111.571C38.869 111.715 39.205 111.937 39.529 112.237C39.865 112.525 40.165 112.915 40.429 113.407C40.693 113.887 40.903 114.487 41.059 115.207C41.227 115.915 41.311 116.773 41.311 117.781C41.311 118.789 41.227 119.653 41.059 120.373C40.903 121.081 40.693 121.681 40.429 122.173C40.165 122.653 39.865 123.043 39.529 123.343C39.205 123.631 38.869 123.853 38.521 124.009C38.185 124.153 37.855 124.249 37.531 124.297C37.219 124.345 36.943 124.369 36.703 124.369C36.463 124.369 36.181 124.345 35.857 124.297C35.545 124.249 35.215 124.153 34.867 124.009C34.531 123.853 34.195 123.631 33.859 123.343C33.535 123.043 33.241 122.653 32.977 122.173C32.713 121.681 32.497 121.081 32.329 120.373C32.173 119.653 32.095 118.789 32.095 117.781ZM34.255 117.781C34.255 118.177 34.279 118.639 34.327 119.167C34.387 119.683 34.501 120.175 34.669 120.643C34.837 121.111 35.083 121.507 35.407 121.831C35.731 122.155 36.163 122.317 36.703 122.317C37.243 122.317 37.675 122.155 37.999 121.831C38.323 121.507 38.569 121.111 38.737 120.643C38.905 120.175 39.013 119.683 39.061 119.167C39.121 118.639 39.151 118.177 39.151 117.781C39.151 117.385 39.121 116.929 39.061 116.413C39.013 115.885 38.905 115.387 38.737 114.919C38.569 114.451 38.323 114.055 37.999 113.731C37.675 113.407 37.243 113.245 36.703 113.245C36.163 113.245 35.731 113.407 35.407 113.731C35.083 114.055 34.837 114.451 34.669 114.919C34.501 115.387 34.387 115.885 34.327 116.413C34.279 116.929 34.255 117.385 34.255 117.781ZM43.0893 121.867L48.0393 117.079C48.1833 116.935 48.3333 116.785 48.4893 116.629C48.6453 116.461 48.7833 116.287 48.9033 116.107C49.0353 115.927 49.1433 115.741 49.2273 115.549C49.3113 115.345 49.3533 115.135 49.3533 114.919C49.3533 114.655 49.2993 114.421 49.1913 114.217C49.0953 114.013 48.9633 113.839 48.7953 113.695C48.6273 113.551 48.4293 113.443 48.2013 113.371C47.9853 113.287 47.7513 113.245 47.4993 113.245C46.9593 113.245 46.5153 113.401 46.1673 113.713C45.8193 114.025 45.6093 114.445 45.5373 114.973L43.2693 114.793C43.3173 114.205 43.4553 113.689 43.6833 113.245C43.9233 112.789 44.2293 112.411 44.6013 112.111C44.9733 111.811 45.4053 111.583 45.8973 111.427C46.3893 111.271 46.9233 111.193 47.4993 111.193C48.0753 111.193 48.6093 111.271 49.1013 111.427C49.6053 111.571 50.0433 111.793 50.4153 112.093C50.7873 112.381 51.0813 112.753 51.2973 113.209C51.5133 113.665 51.6213 114.199 51.6213 114.811C51.6213 115.615 51.4353 116.311 51.0633 116.899C50.7033 117.475 50.2353 118.027 49.6593 118.555L45.7173 122.209H51.6213V124.153H43.0893V121.867ZM53.3997 117.781C53.3997 116.773 53.4777 115.915 53.6337 115.207C53.8017 114.487 54.0177 113.887 54.2817 113.407C54.5457 112.915 54.8397 112.525 55.1637 112.237C55.4997 111.937 55.8357 111.715 56.1717 111.571C56.5197 111.415 56.8497 111.313 57.1617 111.265C57.4857 111.217 57.7677 111.193 58.0077 111.193C58.2477 111.193 58.5237 111.217 58.8357 111.265C59.1597 111.313 59.4897 111.415 59.8257 111.571C60.1737 111.715 60.5097 111.937 60.8337 112.237C61.1697 112.525 61.4697 112.915 61.7337 113.407C61.9977 113.887 62.2077 114.487 62.3637 115.207C62.5317 115.915 62.6157 116.773 62.6157 117.781C62.6157 118.789 62.5317 119.653 62.3637 120.373C62.2077 121.081 61.9977 121.681 61.7337 122.173C61.4697 122.653 61.1697 123.043 60.8337 123.343C60.5097 123.631 60.1737 123.853 59.8257 124.009C59.4897 124.153 59.1597 124.249 58.8357 124.297C58.5237 124.345 58.2477 124.369 58.0077 124.369C57.7677 124.369 57.4857 124.345 57.1617 124.297C56.8497 124.249 56.5197 124.153 56.1717 124.009C55.8357 123.853 55.4997 123.631 55.1637 123.343C54.8397 123.043 54.5457 122.653 54.2817 122.173C54.0177 121.681 53.8017 121.081 53.6337 120.373C53.4777 119.653 53.3997 118.789 53.3997 117.781ZM55.5597 117.781C55.5597 118.177 55.5837 118.639 55.6317 119.167C55.6917 119.683 55.8057 120.175 55.9737 120.643C56.1417 121.111 56.3877 121.507 56.7117 121.831C57.0357 122.155 57.4677 122.317 58.0077 122.317C58.5477 122.317 58.9797 122.155 59.3037 121.831C59.6277 121.507 59.8737 121.111 60.0417 120.643C60.2097 120.175 60.3177 119.683 60.3657 119.167C60.4257 118.639 60.4557 118.177 60.4557 117.781C60.4557 117.385 60.4257 116.929 60.3657 116.413C60.3177 115.885 60.2097 115.387 60.0417 114.919C59.8737 114.451 59.6277 114.055 59.3037 113.731C58.9797 113.407 58.5477 113.245 58.0077 113.245C57.4677 113.245 57.0357 113.407 56.7117 113.731C56.3877 114.055 56.1417 114.451 55.9737 114.919C55.8057 115.387 55.6917 115.885 55.6317 116.413C55.5837 116.929 55.5597 117.385 55.5597 117.781ZM73.7162 120.643H69.2702V118.807H73.7162V120.643ZM81.0841 111.409H84.0901L90.2641 120.877H90.3001V111.409H92.5681V124.153H89.6881L83.3881 114.379H83.3521V124.153H81.0841V111.409ZM94.7803 119.833C94.7803 119.149 94.9003 118.531 95.1403 117.979C95.3923 117.415 95.7283 116.935 96.1483 116.539C96.5683 116.143 97.0663 115.837 97.6423 115.621C98.2183 115.405 98.8303 115.297 99.4783 115.297C100.126 115.297 100.738 115.405 101.314 115.621C101.89 115.837 102.388 116.143 102.808 116.539C103.228 116.935 103.558 117.415 103.798 117.979C104.05 118.531 104.176 119.149 104.176 119.833C104.176 120.517 104.05 121.141 103.798 121.705C103.558 122.257 103.228 122.731 102.808 123.127C102.388 123.523 101.89 123.829 101.314 124.045C100.738 124.261 100.126 124.369 99.4783 124.369C98.8303 124.369 98.2183 124.261 97.6423 124.045C97.0663 123.829 96.5683 123.523 96.1483 123.127C95.7283 122.731 95.3923 122.257 95.1403 121.705C94.9003 121.141 94.7803 120.517 94.7803 119.833ZM96.9403 119.833C96.9403 120.169 96.9943 120.493 97.1023 120.805C97.2223 121.117 97.3903 121.393 97.6063 121.633C97.8343 121.873 98.1043 122.065 98.4163 122.209C98.7283 122.353 99.0823 122.425 99.4783 122.425C99.8743 122.425 100.228 122.353 100.54 122.209C100.852 122.065 101.116 121.873 101.332 121.633C101.56 121.393 101.728 121.117 101.836 120.805C101.956 120.493 102.016 120.169 102.016 119.833C102.016 119.497 101.956 119.173 101.836 118.861C101.728 118.549 101.56 118.273 101.332 118.033C101.116 117.793 100.852 117.601 100.54 117.457C100.228 117.313 99.8743 117.241 99.4783 117.241C99.0823 117.241 98.7283 117.313 98.4163 117.457C98.1043 117.601 97.8343 117.793 97.6063 118.033C97.3903 118.273 97.2223 118.549 97.1023 118.861C96.9943 119.173 96.9403 119.497 96.9403 119.833ZM109.007 113.461H105.101V111.409H115.181V113.461H111.275V124.153H109.007V113.461ZM120.142 122.965H120.088C119.776 123.457 119.38 123.817 118.9 124.045C118.42 124.261 117.892 124.369 117.316 124.369C116.92 124.369 116.53 124.315 116.146 124.207C115.774 124.099 115.438 123.937 115.138 123.721C114.85 123.505 114.616 123.235 114.436 122.911C114.256 122.587 114.166 122.209 114.166 121.777C114.166 121.309 114.25 120.913 114.418 120.589C114.586 120.253 114.808 119.977 115.084 119.761C115.372 119.533 115.702 119.353 116.074 119.221C116.446 119.089 116.83 118.993 117.226 118.933C117.634 118.861 118.042 118.819 118.45 118.807C118.858 118.783 119.242 118.771 119.602 118.771H120.142V118.537C120.142 117.997 119.956 117.595 119.584 117.331C119.212 117.055 118.738 116.917 118.162 116.917C117.706 116.917 117.28 117.001 116.884 117.169C116.488 117.325 116.146 117.541 115.858 117.817L114.724 116.683C115.204 116.191 115.762 115.837 116.398 115.621C117.046 115.405 117.712 115.297 118.396 115.297C119.008 115.297 119.524 115.369 119.944 115.513C120.364 115.645 120.712 115.819 120.988 116.035C121.264 116.251 121.474 116.503 121.618 116.791C121.774 117.067 121.882 117.349 121.942 117.637C122.014 117.925 122.056 118.207 122.068 118.483C122.08 118.747 122.086 118.981 122.086 119.185V124.153H120.142V122.965ZM120.016 120.283H119.566C119.266 120.283 118.93 120.295 118.558 120.319C118.186 120.343 117.832 120.403 117.496 120.499C117.172 120.583 116.896 120.715 116.668 120.895C116.44 121.063 116.326 121.303 116.326 121.615C116.326 121.819 116.368 121.993 116.452 122.137C116.548 122.269 116.668 122.383 116.812 122.479C116.956 122.575 117.118 122.647 117.298 122.695C117.478 122.731 117.658 122.749 117.838 122.749C118.582 122.749 119.128 122.575 119.476 122.227C119.836 121.867 120.016 121.381 120.016 120.769V120.283ZM124.41 110.545H126.57V116.611H126.624C126.732 116.467 126.87 116.323 127.038 116.179C127.206 116.023 127.41 115.879 127.65 115.747C127.89 115.615 128.166 115.507 128.478 115.423C128.79 115.339 129.15 115.297 129.558 115.297C130.17 115.297 130.734 115.417 131.25 115.657C131.766 115.885 132.204 116.203 132.564 116.611C132.936 117.019 133.224 117.499 133.428 118.051C133.632 118.603 133.734 119.197 133.734 119.833C133.734 120.469 133.638 121.063 133.446 121.615C133.254 122.167 132.972 122.647 132.6 123.055C132.228 123.463 131.778 123.787 131.25 124.027C130.722 124.255 130.128 124.369 129.468 124.369C128.856 124.369 128.286 124.249 127.758 124.009C127.23 123.769 126.81 123.385 126.498 122.857H126.462V124.153H124.41V110.545ZM131.574 119.833C131.574 119.497 131.514 119.173 131.394 118.861C131.286 118.549 131.118 118.273 130.89 118.033C130.674 117.793 130.41 117.601 130.098 117.457C129.786 117.313 129.432 117.241 129.036 117.241C128.64 117.241 128.286 117.313 127.974 117.457C127.662 117.601 127.392 117.793 127.164 118.033C126.948 118.273 126.78 118.549 126.66 118.861C126.552 119.173 126.498 119.497 126.498 119.833C126.498 120.169 126.552 120.493 126.66 120.805C126.78 121.117 126.948 121.393 127.164 121.633C127.392 121.873 127.662 122.065 127.974 122.209C128.286 122.353 128.64 122.425 129.036 122.425C129.432 122.425 129.786 122.353 130.098 122.209C130.41 122.065 130.674 121.873 130.89 121.633C131.118 121.393 131.286 121.117 131.394 120.805C131.514 120.493 131.574 120.169 131.574 119.833ZM139.149 114.199H141.399C141.807 114.199 142.197 114.229 142.569 114.289C142.953 114.349 143.289 114.457 143.577 114.613C143.877 114.757 144.117 114.967 144.297 115.243C144.477 115.507 144.567 115.849 144.567 116.269C144.567 116.581 144.519 116.869 144.423 117.133C144.327 117.385 144.201 117.601 144.045 117.781C143.901 117.961 143.733 118.111 143.541 118.231C143.361 118.339 143.175 118.405 142.983 118.429L144.783 121.219H142.893L141.291 118.519H140.877V121.219H139.149V114.199ZM140.859 117.115H141.705C141.813 117.115 141.933 117.109 142.065 117.097C142.197 117.085 142.317 117.055 142.425 117.007C142.545 116.959 142.641 116.887 142.713 116.791C142.797 116.683 142.839 116.539 142.839 116.359C142.839 116.179 142.797 116.041 142.713 115.945C142.641 115.837 142.545 115.759 142.425 115.711C142.317 115.663 142.197 115.633 142.065 115.621C141.933 115.609 141.813 115.603 141.705 115.603H140.859V117.115ZM135.027 117.781C135.027 116.857 135.201 115.993 135.549 115.189C135.909 114.373 136.389 113.665 136.989 113.065C137.601 112.453 138.309 111.973 139.113 111.625C139.929 111.265 140.799 111.085 141.723 111.085C142.647 111.085 143.511 111.265 144.315 111.625C145.131 111.973 145.839 112.453 146.439 113.065C147.051 113.665 147.531 114.373 147.879 115.189C148.239 115.993 148.419 116.857 148.419 117.781C148.419 118.705 148.239 119.575 147.879 120.391C147.531 121.195 147.051 121.903 146.439 122.515C145.839 123.115 145.131 123.595 144.315 123.955C143.511 124.303 142.647 124.477 141.723 124.477C140.799 124.477 139.929 124.303 139.113 123.955C138.309 123.595 137.601 123.115 136.989 122.515C136.389 121.903 135.909 121.195 135.549 120.391C135.201 119.575 135.027 118.705 135.027 117.781ZM136.755 117.781C136.755 118.501 136.881 119.179 137.133 119.815C137.397 120.439 137.751 120.985 138.195 121.453C138.639 121.921 139.161 122.293 139.761 122.569C140.373 122.833 141.027 122.965 141.723 122.965C142.419 122.965 143.067 122.833 143.667 122.569C144.279 122.293 144.807 121.921 145.251 121.453C145.695 120.985 146.043 120.439 146.295 119.815C146.559 119.179 146.691 118.501 146.691 117.781C146.691 117.061 146.559 116.389 146.295 115.765C146.043 115.129 145.695 114.577 145.251 114.109C144.807 113.641 144.279 113.275 143.667 113.011C143.067 112.735 142.419 112.597 141.723 112.597C141.027 112.597 140.373 112.735 139.761 113.011C139.161 113.275 138.639 113.641 138.195 114.109C137.751 114.577 137.397 115.129 137.133 115.765C136.881 116.389 136.755 117.061 136.755 117.781Z" fill="white"/>
<path d="M10.512 45.01C10.152 44.542 9.696 44.182 9.144 43.93C8.592 43.678 8.022 43.552 7.434 43.552C6.714 43.552 6.06 43.69 5.472 43.966C4.896 44.23 4.398 44.596 3.978 45.064C3.57 45.532 3.252 46.084 3.024 46.72C2.796 47.344 2.682 48.016 2.682 48.736C2.682 49.408 2.79 50.044 3.006 50.644C3.222 51.244 3.534 51.772 3.942 52.228C4.35 52.684 4.848 53.044 5.436 53.308C6.024 53.572 6.69 53.704 7.434 53.704C8.166 53.704 8.808 53.554 9.36 53.254C9.912 52.954 10.38 52.534 10.764 51.994L12.222 53.092C12.126 53.224 11.958 53.416 11.718 53.668C11.478 53.908 11.16 54.154 10.764 54.406C10.368 54.646 9.888 54.856 9.324 55.036C8.772 55.228 8.13 55.324 7.398 55.324C6.39 55.324 5.478 55.132 4.662 54.748C3.858 54.364 3.168 53.86 2.592 53.236C2.028 52.612 1.596 51.91 1.296 51.13C0.996 50.338 0.846 49.54 0.846 48.736C0.846 47.752 1.008 46.846 1.332 46.018C1.656 45.178 2.106 44.458 2.682 43.858C3.27 43.246 3.972 42.772 4.788 42.436C5.604 42.1 6.504 41.932 7.488 41.932C8.328 41.932 9.15 42.094 9.954 42.418C10.77 42.742 11.436 43.24 11.952 43.912L10.512 45.01ZM15.2118 50.734C15.2118 51.166 15.2778 51.568 15.4098 51.94C15.5418 52.3 15.7278 52.612 15.9678 52.876C16.2078 53.128 16.5018 53.332 16.8498 53.488C17.1978 53.632 17.5878 53.704 18.0198 53.704C18.4518 53.704 18.8418 53.632 19.1898 53.488C19.5378 53.332 19.8318 53.128 20.0718 52.876C20.3118 52.612 20.4978 52.3 20.6298 51.94C20.7618 51.568 20.8278 51.166 20.8278 50.734C20.8278 50.302 20.7618 49.906 20.6298 49.546C20.4978 49.174 20.3118 48.862 20.0718 48.61C19.8318 48.346 19.5378 48.142 19.1898 47.998C18.8418 47.842 18.4518 47.764 18.0198 47.764C17.5878 47.764 17.1978 47.842 16.8498 47.998C16.5018 48.142 16.2078 48.346 15.9678 48.61C15.7278 48.862 15.5418 49.174 15.4098 49.546C15.2778 49.906 15.2118 50.302 15.2118 50.734ZM13.4838 50.734C13.4838 50.11 13.5978 49.528 13.8258 48.988C14.0658 48.448 14.3898 47.974 14.7978 47.566C15.2058 47.158 15.6858 46.84 16.2378 46.612C16.7898 46.372 17.3838 46.252 18.0198 46.252C18.6558 46.252 19.2498 46.372 19.8018 46.612C20.3538 46.84 20.8338 47.158 21.2418 47.566C21.6498 47.974 21.9678 48.448 22.1958 48.988C22.4358 49.528 22.5558 50.11 22.5558 50.734C22.5558 51.358 22.4358 51.946 22.1958 52.498C21.9678 53.038 21.6498 53.512 21.2418 53.92C20.8338 54.316 20.3538 54.634 19.8018 54.874C19.2498 55.102 18.6558 55.216 18.0198 55.216C17.3838 55.216 16.7898 55.102 16.2378 54.874C15.6858 54.634 15.2058 54.316 14.7978 53.92C14.3898 53.512 14.0658 53.038 13.8258 52.498C13.5978 51.946 13.4838 51.358 13.4838 50.734ZM24.5853 46.468H26.2053V47.782H26.2413C26.4453 47.326 26.7993 46.96 27.3033 46.684C27.8073 46.396 28.3893 46.252 29.0493 46.252C29.4573 46.252 29.8473 46.318 30.2193 46.45C30.6033 46.57 30.9333 46.762 31.2093 47.026C31.4973 47.29 31.7253 47.632 31.8933 48.052C32.0613 48.46 32.1453 48.946 32.1453 49.51V55H30.5253V49.96C30.5253 49.564 30.4713 49.228 30.3633 48.952C30.2553 48.664 30.1113 48.436 29.9313 48.268C29.7513 48.088 29.5413 47.962 29.3013 47.89C29.0733 47.806 28.8333 47.764 28.5813 47.764C28.2453 47.764 27.9333 47.818 27.6453 47.926C27.3573 48.034 27.1053 48.208 26.8893 48.448C26.6733 48.676 26.5053 48.97 26.3853 49.33C26.2653 49.69 26.2053 50.116 26.2053 50.608V55H24.5853V46.468ZM39.1593 47.872H36.8373V51.742C36.8373 51.982 36.8433 52.222 36.8553 52.462C36.8673 52.69 36.9093 52.9 36.9813 53.092C37.0653 53.272 37.1853 53.422 37.3413 53.542C37.5093 53.65 37.7493 53.704 38.0613 53.704C38.2533 53.704 38.4513 53.686 38.6553 53.65C38.8593 53.614 39.0453 53.548 39.2133 53.452V54.928C39.0213 55.036 38.7693 55.108 38.4573 55.144C38.1573 55.192 37.9233 55.216 37.7553 55.216C37.1313 55.216 36.6453 55.132 36.2973 54.964C35.9613 54.784 35.7093 54.556 35.5413 54.28C35.3853 54.004 35.2893 53.698 35.2533 53.362C35.2293 53.014 35.2173 52.666 35.2173 52.318V47.872H33.3453V46.468H35.2173V44.074H36.8373V46.468H39.1593V47.872ZM41.2854 47.512C41.7414 47.092 42.2694 46.78 42.8694 46.576C43.4694 46.36 44.0694 46.252 44.6694 46.252C45.2934 46.252 45.8274 46.33 46.2714 46.486C46.7274 46.642 47.0994 46.852 47.3874 47.116C47.6754 47.38 47.8854 47.686 48.0174 48.034C48.1614 48.37 48.2334 48.724 48.2334 49.096V53.452C48.2334 53.752 48.2394 54.028 48.2514 54.28C48.2634 54.532 48.2814 54.772 48.3054 55H46.8654C46.8294 54.568 46.8114 54.136 46.8114 53.704H46.7754C46.4154 54.256 45.9894 54.646 45.4974 54.874C45.0054 55.102 44.4354 55.216 43.7874 55.216C43.3914 55.216 43.0134 55.162 42.6534 55.054C42.2934 54.946 41.9754 54.784 41.6994 54.568C41.4354 54.352 41.2254 54.088 41.0694 53.776C40.9134 53.452 40.8354 53.08 40.8354 52.66C40.8354 52.108 40.9554 51.646 41.1954 51.274C41.4474 50.902 41.7834 50.602 42.2034 50.374C42.6354 50.134 43.1334 49.966 43.6974 49.87C44.2734 49.762 44.8854 49.708 45.5334 49.708H46.7214V49.348C46.7214 49.132 46.6794 48.916 46.5954 48.7C46.5114 48.484 46.3854 48.292 46.2174 48.124C46.0494 47.944 45.8394 47.806 45.5874 47.71C45.3354 47.602 45.0354 47.548 44.6874 47.548C44.3754 47.548 44.0994 47.578 43.8594 47.638C43.6314 47.698 43.4214 47.776 43.2294 47.872C43.0374 47.956 42.8634 48.058 42.7074 48.178C42.5514 48.298 42.4014 48.412 42.2574 48.52L41.2854 47.512ZM45.8574 50.896C45.4734 50.896 45.0774 50.92 44.6694 50.968C44.2734 51.004 43.9074 51.082 43.5714 51.202C43.2474 51.322 42.9774 51.49 42.7614 51.706C42.5574 51.922 42.4554 52.198 42.4554 52.534C42.4554 53.026 42.6174 53.38 42.9414 53.596C43.2774 53.812 43.7274 53.92 44.2914 53.92C44.7354 53.92 45.1134 53.848 45.4254 53.704C45.7374 53.548 45.9894 53.35 46.1814 53.11C46.3734 52.87 46.5114 52.606 46.5954 52.318C46.6794 52.018 46.7214 51.724 46.7214 51.436V50.896H45.8574ZM56.6854 48.736C56.3854 48.424 56.0674 48.19 55.7314 48.034C55.4074 47.866 55.0174 47.782 54.5614 47.782C54.1174 47.782 53.7274 47.866 53.3914 48.034C53.0674 48.19 52.7914 48.412 52.5634 48.7C52.3474 48.976 52.1794 49.3 52.0594 49.672C51.9514 50.032 51.8974 50.41 51.8974 50.806C51.8974 51.202 51.9634 51.58 52.0954 51.94C52.2274 52.288 52.4134 52.594 52.6534 52.858C52.8934 53.122 53.1814 53.332 53.5174 53.488C53.8534 53.632 54.2314 53.704 54.6514 53.704C55.1074 53.704 55.4974 53.626 55.8214 53.47C56.1454 53.302 56.4454 53.062 56.7214 52.75L57.8734 53.902C57.4534 54.37 56.9614 54.706 56.3974 54.91C55.8454 55.114 55.2574 55.216 54.6334 55.216C53.9734 55.216 53.3674 55.108 52.8154 54.892C52.2754 54.676 51.8074 54.376 51.4114 53.992C51.0154 53.596 50.7094 53.128 50.4934 52.588C50.2774 52.036 50.1694 51.43 50.1694 50.77C50.1694 50.11 50.2774 49.504 50.4934 48.952C50.7094 48.4 51.0094 47.926 51.3934 47.53C51.7894 47.134 52.2574 46.828 52.7974 46.612C53.3494 46.384 53.9614 46.27 54.6334 46.27C55.2574 46.27 55.8514 46.384 56.4154 46.612C56.9914 46.828 57.4894 47.164 57.9094 47.62L56.6854 48.736ZM63.839 47.872H61.517V51.742C61.517 51.982 61.523 52.222 61.535 52.462C61.547 52.69 61.589 52.9 61.661 53.092C61.745 53.272 61.865 53.422 62.021 53.542C62.189 53.65 62.429 53.704 62.741 53.704C62.933 53.704 63.131 53.686 63.335 53.65C63.539 53.614 63.725 53.548 63.893 53.452V54.928C63.701 55.036 63.449 55.108 63.137 55.144C62.837 55.192 62.603 55.216 62.435 55.216C61.811 55.216 61.325 55.132 60.977 54.964C60.641 54.784 60.389 54.556 60.221 54.28C60.065 54.004 59.969 53.698 59.933 53.362C59.909 53.014 59.897 52.666 59.897 52.318V47.872H58.025V46.468H59.897V44.074H61.517V46.468H63.839V47.872ZM78.4988 55H76.8788V53.686H76.8428C76.6388 54.142 76.2848 54.514 75.7808 54.802C75.2768 55.078 74.6948 55.216 74.0348 55.216C73.6148 55.216 73.2188 55.15 72.8468 55.018C72.4748 54.898 72.1448 54.706 71.8568 54.442C71.5808 54.178 71.3588 53.842 71.1908 53.434C71.0228 53.014 70.9388 52.522 70.9388 51.958V46.468H72.5588V51.508C72.5588 51.904 72.6128 52.246 72.7208 52.534C72.8288 52.81 72.9728 53.038 73.1528 53.218C73.3328 53.386 73.5368 53.512 73.7648 53.596C74.0048 53.668 74.2508 53.704 74.5028 53.704C74.8388 53.704 75.1508 53.65 75.4388 53.542C75.7268 53.434 75.9788 53.266 76.1948 53.038C76.4108 52.798 76.5788 52.498 76.6988 52.138C76.8188 51.778 76.8788 51.352 76.8788 50.86V46.468H78.4988V55ZM85.4768 48.61C85.2848 48.37 85.0448 48.172 84.7568 48.016C84.4808 47.848 84.1388 47.764 83.7308 47.764C83.3468 47.764 83.0108 47.848 82.7228 48.016C82.4468 48.172 82.3088 48.406 82.3088 48.718C82.3088 48.97 82.3868 49.174 82.5428 49.33C82.7108 49.486 82.9028 49.612 83.1188 49.708C83.3468 49.804 83.5868 49.876 83.8388 49.924C84.0908 49.972 84.3068 50.014 84.4868 50.05C84.8348 50.134 85.1588 50.236 85.4588 50.356C85.7708 50.476 86.0348 50.632 86.2508 50.824C86.4788 51.016 86.6528 51.25 86.7728 51.526C86.9048 51.802 86.9708 52.138 86.9708 52.534C86.9708 53.014 86.8688 53.428 86.6648 53.776C86.4608 54.112 86.1968 54.388 85.8728 54.604C85.5488 54.82 85.1768 54.976 84.7568 55.072C84.3488 55.168 83.9348 55.216 83.5148 55.216C82.8068 55.216 82.1828 55.108 81.6428 54.892C81.1148 54.676 80.6408 54.28 80.2208 53.704L81.4448 52.696C81.7088 52.96 82.0028 53.194 82.3268 53.398C82.6508 53.602 83.0468 53.704 83.5148 53.704C83.7188 53.704 83.9228 53.686 84.1268 53.65C84.3428 53.602 84.5288 53.536 84.6848 53.452C84.8528 53.356 84.9848 53.242 85.0808 53.11C85.1888 52.966 85.2428 52.804 85.2428 52.624C85.2428 52.384 85.1648 52.186 85.0088 52.03C84.8648 51.874 84.6848 51.754 84.4688 51.67C84.2648 51.574 84.0428 51.502 83.8028 51.454C83.5748 51.394 83.3708 51.346 83.1908 51.31C82.8428 51.226 82.5128 51.13 82.2008 51.022C81.8888 50.914 81.6128 50.77 81.3728 50.59C81.1328 50.41 80.9408 50.182 80.7968 49.906C80.6528 49.63 80.5808 49.288 80.5808 48.88C80.5808 48.436 80.6708 48.052 80.8508 47.728C81.0428 47.392 81.2888 47.116 81.5888 46.9C81.9008 46.684 82.2488 46.522 82.6328 46.414C83.0288 46.306 83.4248 46.252 83.8208 46.252C84.3968 46.252 84.9488 46.36 85.4768 46.576C86.0048 46.792 86.4248 47.152 86.7368 47.656L85.4768 48.61ZM90.2168 48.736C89.8928 48.736 89.6108 48.622 89.3708 48.394C89.1428 48.154 89.0288 47.872 89.0288 47.548C89.0288 47.224 89.1428 46.948 89.3708 46.72C89.6108 46.48 89.8928 46.36 90.2168 46.36C90.5408 46.36 90.8168 46.48 91.0448 46.72C91.2848 46.948 91.4048 47.224 91.4048 47.548C91.4048 47.872 91.2848 48.154 91.0448 48.394C90.8168 48.622 90.5408 48.736 90.2168 48.736ZM89.0288 53.92C89.0288 53.596 89.1428 53.32 89.3708 53.092C89.6108 52.852 89.8928 52.732 90.2168 52.732C90.5408 52.732 90.8168 52.852 91.0448 53.092C91.2848 53.32 91.4048 53.596 91.4048 53.92C91.4048 54.244 91.2848 54.526 91.0448 54.766C90.8168 54.994 90.5408 55.108 90.2168 55.108C89.8928 55.108 89.6108 54.994 89.3708 54.766C89.1428 54.526 89.0288 54.244 89.0288 53.92ZM5.832 73.754C5.412 73.166 4.848 72.872 4.14 72.872C3.852 72.872 3.57 72.944 3.294 73.088C3.018 73.232 2.88 73.466 2.88 73.79C2.88 74.054 2.994 74.246 3.222 74.366C3.45 74.486 3.738 74.588 4.086 74.672C4.434 74.756 4.806 74.846 5.202 74.942C5.61 75.026 5.988 75.164 6.336 75.356C6.684 75.536 6.972 75.788 7.2 76.112C7.428 76.436 7.542 76.88 7.542 77.444C7.542 77.96 7.428 78.398 7.2 78.758C6.984 79.106 6.696 79.388 6.336 79.604C5.988 79.82 5.592 79.976 5.148 80.072C4.704 80.168 4.26 80.216 3.816 80.216C3.144 80.216 2.526 80.12 1.962 79.928C1.398 79.736 0.894 79.388 0.45 78.884L1.89 77.534C2.166 77.846 2.46 78.104 2.772 78.308C3.096 78.5 3.486 78.596 3.942 78.596C4.098 78.596 4.26 78.578 4.428 78.542C4.596 78.506 4.752 78.446 4.896 78.362C5.04 78.278 5.154 78.176 5.238 78.056C5.334 77.924 5.382 77.774 5.382 77.606C5.382 77.306 5.268 77.084 5.04 76.94C4.812 76.796 4.524 76.682 4.176 76.598C3.828 76.502 3.45 76.418 3.042 76.346C2.646 76.262 2.274 76.136 1.926 75.968C1.578 75.788 1.29 75.542 1.062 75.23C0.834 74.918 0.72 74.486 0.72 73.934C0.72 73.454 0.816 73.04 1.008 72.692C1.212 72.332 1.476 72.038 1.8 71.81C2.124 71.582 2.496 71.414 2.916 71.306C3.336 71.198 3.762 71.144 4.194 71.144C4.77 71.144 5.34 71.246 5.904 71.45C6.468 71.642 6.924 71.978 7.272 72.458L5.832 73.754ZM17.106 80H15.054V78.614H15.018C14.814 79.046 14.502 79.424 14.082 79.748C13.662 80.06 13.092 80.216 12.372 80.216C11.796 80.216 11.304 80.126 10.896 79.946C10.5 79.754 10.176 79.502 9.92405 79.19C9.67205 78.866 9.49205 78.5 9.38405 78.092C9.27605 77.684 9.22205 77.258 9.22205 76.814V71.36H11.382V75.734C11.382 75.974 11.394 76.244 11.418 76.544C11.442 76.832 11.502 77.108 11.598 77.372C11.706 77.624 11.862 77.84 12.066 78.02C12.282 78.188 12.582 78.272 12.966 78.272C13.326 78.272 13.626 78.212 13.866 78.092C14.118 77.972 14.322 77.81 14.478 77.606C14.646 77.402 14.766 77.168 14.838 76.904C14.91 76.64 14.946 76.364 14.946 76.076V71.36H17.106V80ZM19.558 71.36H21.61V72.656H21.646C21.958 72.128 22.378 71.744 22.906 71.504C23.434 71.264 24.004 71.144 24.616 71.144C25.276 71.144 25.87 71.264 26.398 71.504C26.926 71.732 27.376 72.05 27.748 72.458C28.12 72.866 28.402 73.346 28.594 73.898C28.786 74.45 28.882 75.044 28.882 75.68C28.882 76.316 28.78 76.91 28.576 77.462C28.372 78.014 28.084 78.494 27.712 78.902C27.352 79.31 26.914 79.634 26.398 79.874C25.882 80.102 25.318 80.216 24.706 80.216C24.298 80.216 23.938 80.174 23.626 80.09C23.314 80.006 23.038 79.898 22.798 79.766C22.558 79.634 22.354 79.496 22.186 79.352C22.018 79.196 21.88 79.046 21.772 78.902H21.718V84.104H19.558V71.36ZM26.722 75.68C26.722 75.344 26.662 75.02 26.542 74.708C26.434 74.396 26.266 74.12 26.038 73.88C25.822 73.64 25.558 73.448 25.246 73.304C24.934 73.16 24.58 73.088 24.184 73.088C23.788 73.088 23.434 73.16 23.122 73.304C22.81 73.448 22.54 73.64 22.312 73.88C22.096 74.12 21.928 74.396 21.808 74.708C21.7 75.02 21.646 75.344 21.646 75.68C21.646 76.016 21.7 76.34 21.808 76.652C21.928 76.964 22.096 77.24 22.312 77.48C22.54 77.72 22.81 77.912 23.122 78.056C23.434 78.2 23.788 78.272 24.184 78.272C24.58 78.272 24.934 78.2 25.246 78.056C25.558 77.912 25.822 77.72 26.038 77.48C26.266 77.24 26.434 76.964 26.542 76.652C26.662 76.34 26.722 76.016 26.722 75.68ZM30.8959 71.36H32.9479V72.656H32.9839C33.2959 72.128 33.7159 71.744 34.2439 71.504C34.7719 71.264 35.3419 71.144 35.9539 71.144C36.6139 71.144 37.2079 71.264 37.7359 71.504C38.2639 71.732 38.7139 72.05 39.0859 72.458C39.4579 72.866 39.7399 73.346 39.9319 73.898C40.1239 74.45 40.2199 75.044 40.2199 75.68C40.2199 76.316 40.1179 76.91 39.9139 77.462C39.7099 78.014 39.4219 78.494 39.0499 78.902C38.6899 79.31 38.2519 79.634 37.7359 79.874C37.2199 80.102 36.6559 80.216 36.0439 80.216C35.6359 80.216 35.2759 80.174 34.9639 80.09C34.6519 80.006 34.3759 79.898 34.1359 79.766C33.8959 79.634 33.6919 79.496 33.5239 79.352C33.3559 79.196 33.2179 79.046 33.1099 78.902H33.0559V84.104H30.8959V71.36ZM38.0599 75.68C38.0599 75.344 37.9999 75.02 37.8799 74.708C37.7719 74.396 37.6039 74.12 37.3759 73.88C37.1599 73.64 36.8959 73.448 36.5839 73.304C36.2719 73.16 35.9179 73.088 35.5219 73.088C35.1259 73.088 34.7719 73.16 34.4599 73.304C34.1479 73.448 33.8779 73.64 33.6499 73.88C33.4339 74.12 33.2659 74.396 33.1459 74.708C33.0379 75.02 32.9839 75.344 32.9839 75.68C32.9839 76.016 33.0379 76.34 33.1459 76.652C33.2659 76.964 33.4339 77.24 33.6499 77.48C33.8779 77.72 34.1479 77.912 34.4599 78.056C34.7719 78.2 35.1259 78.272 35.5219 78.272C35.9179 78.272 36.2719 78.2 36.5839 78.056C36.8959 77.912 37.1599 77.72 37.3759 77.48C37.6039 77.24 37.7719 76.964 37.8799 76.652C37.9999 76.34 38.0599 76.016 38.0599 75.68ZM41.8018 75.68C41.8018 74.996 41.9218 74.378 42.1618 73.826C42.4138 73.262 42.7498 72.782 43.1698 72.386C43.5898 71.99 44.0878 71.684 44.6638 71.468C45.2398 71.252 45.8518 71.144 46.4998 71.144C47.1478 71.144 47.7598 71.252 48.3358 71.468C48.9118 71.684 49.4098 71.99 49.8298 72.386C50.2498 72.782 50.5798 73.262 50.8198 73.826C51.0718 74.378 51.1978 74.996 51.1978 75.68C51.1978 76.364 51.0718 76.988 50.8198 77.552C50.5798 78.104 50.2498 78.578 49.8298 78.974C49.4098 79.37 48.9118 79.676 48.3358 79.892C47.7598 80.108 47.1478 80.216 46.4998 80.216C45.8518 80.216 45.2398 80.108 44.6638 79.892C44.0878 79.676 43.5898 79.37 43.1698 78.974C42.7498 78.578 42.4138 78.104 42.1618 77.552C41.9218 76.988 41.8018 76.364 41.8018 75.68ZM43.9618 75.68C43.9618 76.016 44.0158 76.34 44.1238 76.652C44.2438 76.964 44.4118 77.24 44.6278 77.48C44.8558 77.72 45.1258 77.912 45.4378 78.056C45.7498 78.2 46.1038 78.272 46.4998 78.272C46.8958 78.272 47.2498 78.2 47.5618 78.056C47.8738 77.912 48.1378 77.72 48.3538 77.48C48.5818 77.24 48.7498 76.964 48.8578 76.652C48.9778 76.34 49.0378 76.016 49.0378 75.68C49.0378 75.344 48.9778 75.02 48.8578 74.708C48.7498 74.396 48.5818 74.12 48.3538 73.88C48.1378 73.64 47.8738 73.448 47.5618 73.304C47.2498 73.16 46.8958 73.088 46.4998 73.088C46.1038 73.088 45.7498 73.16 45.4378 73.304C45.1258 73.448 44.8558 73.64 44.6278 73.88C44.4118 74.12 44.2438 74.396 44.1238 74.708C44.0158 75.02 43.9618 75.344 43.9618 75.68ZM53.2201 71.36H55.3801V72.728H55.4161C55.6561 72.224 55.9981 71.834 56.4421 71.558C56.8861 71.282 57.3961 71.144 57.9721 71.144C58.1041 71.144 58.2301 71.156 58.3501 71.18C58.4821 71.204 58.6141 71.234 58.7461 71.27V73.358C58.5661 73.31 58.3861 73.274 58.2061 73.25C58.0381 73.214 57.8701 73.196 57.7021 73.196C57.1981 73.196 56.7901 73.292 56.4781 73.484C56.1781 73.664 55.9441 73.874 55.7761 74.114C55.6201 74.354 55.5121 74.594 55.4521 74.834C55.4041 75.074 55.3801 75.254 55.3801 75.374V80H53.2201V71.36ZM59.2082 73.196V71.36H60.9902V68.858H63.1502V71.36H65.5262V73.196H63.1502V76.976C63.1502 77.408 63.2282 77.75 63.3842 78.002C63.5522 78.254 63.8762 78.38 64.3562 78.38C64.5482 78.38 64.7582 78.362 64.9862 78.326C65.2142 78.278 65.3942 78.206 65.5262 78.11V79.928C65.2982 80.036 65.0162 80.108 64.6802 80.144C64.3562 80.192 64.0682 80.216 63.8162 80.216C63.2402 80.216 62.7662 80.15 62.3942 80.018C62.0342 79.898 61.7462 79.712 61.5302 79.46C61.3262 79.196 61.1822 78.872 61.0982 78.488C61.0262 78.104 60.9902 77.66 60.9902 77.156V73.196H59.2082ZM73.2063 71.792C72.9063 71.792 72.6363 71.852 72.3963 71.972C72.1563 72.08 71.9523 72.236 71.7843 72.44C71.6283 72.632 71.5083 72.86 71.4243 73.124C71.3403 73.388 71.2983 73.67 71.2983 73.97C71.2983 74.066 71.3043 74.21 71.3163 74.402C71.3403 74.582 71.3943 74.762 71.4783 74.942C71.5743 75.122 71.7243 75.284 71.9283 75.428C72.1323 75.56 72.4203 75.626 72.7923 75.626C73.1283 75.626 73.4103 75.56 73.6383 75.428C73.8663 75.296 74.0463 75.128 74.1783 74.924C74.3103 74.708 74.4003 74.474 74.4483 74.222C74.5083 73.958 74.5383 73.7 74.5383 73.448C74.5383 72.968 74.4303 72.572 74.2143 72.26C73.9983 71.948 73.6623 71.792 73.2063 71.792ZM79.0743 77.606C78.4263 78.494 77.6163 79.172 76.6443 79.64C75.6843 80.096 74.6523 80.324 73.5483 80.324C72.5883 80.324 71.6823 80.162 70.8303 79.838C69.9903 79.502 69.2523 79.04 68.6163 78.452C67.9803 77.864 67.4763 77.162 67.1043 76.346C66.7443 75.518 66.5643 74.618 66.5643 73.646C66.5643 72.686 66.7443 71.798 67.1043 70.982C67.4643 70.166 67.9563 69.458 68.5803 68.858C69.2043 68.258 69.9303 67.79 70.7583 67.454C71.5983 67.106 72.4923 66.932 73.4403 66.932C74.2323 66.932 75.0063 67.064 75.7623 67.328C76.5303 67.58 77.2143 67.958 77.8143 68.462C78.4143 68.966 78.8943 69.59 79.2543 70.334C79.6263 71.066 79.8123 71.906 79.8123 72.854C79.8123 73.49 79.7343 74.042 79.5783 74.51C79.4343 74.978 79.2423 75.374 79.0023 75.698C78.7743 76.022 78.5103 76.286 78.2103 76.49C77.9223 76.694 77.6283 76.85 77.3283 76.958C77.0403 77.066 76.7583 77.144 76.4823 77.192C76.2183 77.228 75.9963 77.246 75.8163 77.246C75.3123 77.246 74.9523 77.144 74.7363 76.94C74.5203 76.736 74.4063 76.514 74.3943 76.274H74.3583C74.1183 76.514 73.8183 76.736 73.4583 76.94C73.0983 77.144 72.6303 77.246 72.0543 77.246C71.6703 77.246 71.3163 77.174 70.9923 77.03C70.6803 76.874 70.4103 76.664 70.1823 76.4C69.9543 76.136 69.7743 75.818 69.6423 75.446C69.5223 75.074 69.4623 74.666 69.4623 74.222C69.4623 73.694 69.5463 73.19 69.7143 72.71C69.8823 72.218 70.1163 71.786 70.4163 71.414C70.7283 71.03 71.1063 70.73 71.5503 70.514C71.9943 70.286 72.4983 70.172 73.0623 70.172C73.5423 70.172 73.9383 70.25 74.2503 70.406C74.5743 70.562 74.8263 70.826 75.0063 71.198H75.0423L75.1863 70.388H76.8783L76.2123 73.934C76.1763 74.102 76.1403 74.27 76.1043 74.438C76.0683 74.606 76.0503 74.78 76.0503 74.96C76.0503 75.176 76.0803 75.344 76.1403 75.464C76.2123 75.572 76.3443 75.626 76.5363 75.626C76.7283 75.626 76.9143 75.578 77.0943 75.482C77.2863 75.374 77.4543 75.212 77.5983 74.996C77.7423 74.768 77.8563 74.486 77.9403 74.15C78.0363 73.814 78.0843 73.412 78.0843 72.944C78.0843 72.224 77.9643 71.594 77.7243 71.054C77.4963 70.502 77.1723 70.04 76.7523 69.668C76.3443 69.296 75.8523 69.02 75.2763 68.84C74.7003 68.648 74.0703 68.552 73.3863 68.552C72.6423 68.552 71.9643 68.678 71.3523 68.93C70.7403 69.182 70.2123 69.536 69.7683 69.992C69.3363 70.448 69.0003 70.988 68.7603 71.612C68.5203 72.236 68.4003 72.914 68.4003 73.646C68.4003 74.438 68.5323 75.146 68.7963 75.77C69.0603 76.394 69.4263 76.922 69.8943 77.354C70.3743 77.786 70.9383 78.122 71.5863 78.362C72.2343 78.59 72.9363 78.704 73.6923 78.704C74.3763 78.704 75.0003 78.608 75.5643 78.416C76.1403 78.224 76.6503 77.954 77.0943 77.606H79.0743ZM81.6088 71.36H83.6608V72.746H83.6968C83.9008 72.314 84.2128 71.942 84.6328 71.63C85.0528 71.306 85.6228 71.144 86.3428 71.144C86.9188 71.144 87.4048 71.24 87.8008 71.432C88.2088 71.624 88.5388 71.876 88.7908 72.188C89.0428 72.5 89.2228 72.86 89.3308 73.268C89.4388 73.676 89.4928 74.102 89.4928 74.546V80H87.3328V75.626C87.3328 75.386 87.3208 75.122 87.2968 74.834C87.2728 74.534 87.2068 74.258 87.0988 74.006C87.0028 73.742 86.8468 73.526 86.6308 73.358C86.4148 73.178 86.1208 73.088 85.7488 73.088C85.3888 73.088 85.0828 73.148 84.8308 73.268C84.5908 73.388 84.3868 73.55 84.2188 73.754C84.0628 73.958 83.9488 74.192 83.8768 74.456C83.8048 74.72 83.7688 74.996 83.7688 75.284V80H81.6088V71.36ZM91.5127 75.68C91.5127 74.996 91.6327 74.378 91.8727 73.826C92.1247 73.262 92.4607 72.782 92.8807 72.386C93.3007 71.99 93.7987 71.684 94.3747 71.468C94.9507 71.252 95.5627 71.144 96.2107 71.144C96.8587 71.144 97.4707 71.252 98.0467 71.468C98.6227 71.684 99.1207 71.99 99.5407 72.386C99.9607 72.782 100.291 73.262 100.531 73.826C100.783 74.378 100.909 74.996 100.909 75.68C100.909 76.364 100.783 76.988 100.531 77.552C100.291 78.104 99.9607 78.578 99.5407 78.974C99.1207 79.37 98.6227 79.676 98.0467 79.892C97.4707 80.108 96.8587 80.216 96.2107 80.216C95.5627 80.216 94.9507 80.108 94.3747 79.892C93.7987 79.676 93.3007 79.37 92.8807 78.974C92.4607 78.578 92.1247 78.104 91.8727 77.552C91.6327 76.988 91.5127 76.364 91.5127 75.68ZM93.6727 75.68C93.6727 76.016 93.7267 76.34 93.8347 76.652C93.9547 76.964 94.1227 77.24 94.3387 77.48C94.5667 77.72 94.8367 77.912 95.1487 78.056C95.4607 78.2 95.8147 78.272 96.2107 78.272C96.6067 78.272 96.9607 78.2 97.2727 78.056C97.5847 77.912 97.8487 77.72 98.0647 77.48C98.2927 77.24 98.4607 76.964 98.5687 76.652C98.6887 76.34 98.7487 76.016 98.7487 75.68C98.7487 75.344 98.6887 75.02 98.5687 74.708C98.4607 74.396 98.2927 74.12 98.0647 73.88C97.8487 73.64 97.5847 73.448 97.2727 73.304C96.9607 73.16 96.6067 73.088 96.2107 73.088C95.8147 73.088 95.4607 73.16 95.1487 73.304C94.8367 73.448 94.5667 73.64 94.3387 73.88C94.1227 74.12 93.9547 74.396 93.8347 74.708C93.7267 75.02 93.6727 75.344 93.6727 75.68ZM101.923 73.196V71.36H103.705V68.858H105.865V71.36H108.241V73.196H105.865V76.976C105.865 77.408 105.943 77.75 106.099 78.002C106.267 78.254 106.591 78.38 107.071 78.38C107.263 78.38 107.473 78.362 107.701 78.326C107.929 78.278 108.109 78.206 108.241 78.11V79.928C108.013 80.036 107.731 80.108 107.395 80.144C107.071 80.192 106.783 80.216 106.531 80.216C105.955 80.216 105.481 80.15 105.109 80.018C104.749 79.898 104.461 79.712 104.245 79.46C104.041 79.196 103.897 78.872 103.813 78.488C103.741 78.104 103.705 77.66 103.705 77.156V73.196H101.923ZM115.327 78.812H115.273C114.961 79.304 114.565 79.664 114.085 79.892C113.605 80.108 113.077 80.216 112.501 80.216C112.105 80.216 111.715 80.162 111.331 80.054C110.959 79.946 110.623 79.784 110.323 79.568C110.035 79.352 109.801 79.082 109.621 78.758C109.441 78.434 109.351 78.056 109.351 77.624C109.351 77.156 109.435 76.76 109.603 76.436C109.771 76.1 109.993 75.824 110.269 75.608C110.557 75.38 110.887 75.2 111.259 75.068C111.631 74.936 112.015 74.84 112.411 74.78C112.819 74.708 113.227 74.666 113.635 74.654C114.043 74.63 114.427 74.618 114.787 74.618H115.327V74.384C115.327 73.844 115.141 73.442 114.769 73.178C114.397 72.902 113.923 72.764 113.347 72.764C112.891 72.764 112.465 72.848 112.069 73.016C111.673 73.172 111.331 73.388 111.043 73.664L109.909 72.53C110.389 72.038 110.947 71.684 111.583 71.468C112.231 71.252 112.897 71.144 113.581 71.144C114.193 71.144 114.709 71.216 115.129 71.36C115.549 71.492 115.897 71.666 116.173 71.882C116.449 72.098 116.659 72.35 116.803 72.638C116.959 72.914 117.067 73.196 117.127 73.484C117.199 73.772 117.241 74.054 117.253 74.33C117.265 74.594 117.271 74.828 117.271 75.032V80H115.327V78.812ZM115.201 76.13H114.751C114.451 76.13 114.115 76.142 113.743 76.166C113.371 76.19 113.017 76.25 112.681 76.346C112.357 76.43 112.081 76.562 111.853 76.742C111.625 76.91 111.511 77.15 111.511 77.462C111.511 77.666 111.553 77.84 111.637 77.984C111.733 78.116 111.853 78.23 111.997 78.326C112.141 78.422 112.303 78.494 112.483 78.542C112.663 78.578 112.843 78.596 113.023 78.596C113.767 78.596 114.313 78.422 114.661 78.074C115.021 77.714 115.201 77.228 115.201 76.616V76.13ZM119.595 66.392H121.755V72.458H121.809C121.917 72.314 122.055 72.17 122.223 72.026C122.391 71.87 122.595 71.726 122.835 71.594C123.075 71.462 123.351 71.354 123.663 71.27C123.975 71.186 124.335 71.144 124.743 71.144C125.355 71.144 125.919 71.264 126.435 71.504C126.951 71.732 127.389 72.05 127.749 72.458C128.121 72.866 128.409 73.346 128.613 73.898C128.817 74.45 128.919 75.044 128.919 75.68C128.919 76.316 128.823 76.91 128.631 77.462C128.439 78.014 128.157 78.494 127.785 78.902C127.413 79.31 126.963 79.634 126.435 79.874C125.907 80.102 125.313 80.216 124.653 80.216C124.041 80.216 123.471 80.096 122.943 79.856C122.415 79.616 121.995 79.232 121.683 78.704H121.647V80H119.595V66.392ZM126.759 75.68C126.759 75.344 126.699 75.02 126.579 74.708C126.471 74.396 126.303 74.12 126.075 73.88C125.859 73.64 125.595 73.448 125.283 73.304C124.971 73.16 124.617 73.088 124.221 73.088C123.825 73.088 123.471 73.16 123.159 73.304C122.847 73.448 122.577 73.64 122.349 73.88C122.133 74.12 121.965 74.396 121.845 74.708C121.737 75.02 121.683 75.344 121.683 75.68C121.683 76.016 121.737 76.34 121.845 76.652C121.965 76.964 122.133 77.24 122.349 77.48C122.577 77.72 122.847 77.912 123.159 78.056C123.471 78.2 123.825 78.272 124.221 78.272C124.617 78.272 124.971 78.2 125.283 78.056C125.595 77.912 125.859 77.72 126.075 77.48C126.303 77.24 126.471 76.964 126.579 76.652C126.699 76.34 126.759 76.016 126.759 75.68ZM130.933 78.74C130.933 78.356 131.071 78.026 131.347 77.75C131.635 77.474 131.977 77.336 132.373 77.336C132.757 77.336 133.093 77.468 133.381 77.732C133.669 77.996 133.813 78.32 133.813 78.704C133.813 79.088 133.669 79.418 133.381 79.694C133.105 79.97 132.769 80.108 132.373 80.108C132.181 80.108 131.995 80.072 131.815 80C131.647 79.928 131.497 79.832 131.365 79.712C131.233 79.592 131.125 79.448 131.041 79.28C130.969 79.112 130.933 78.932 130.933 78.74ZM142.163 73.952C141.911 73.688 141.647 73.478 141.371 73.322C141.095 73.166 140.813 73.088 140.525 73.088C140.129 73.088 139.775 73.16 139.463 73.304C139.151 73.448 138.881 73.64 138.653 73.88C138.437 74.12 138.269 74.396 138.149 74.708C138.041 75.02 137.987 75.344 137.987 75.68C137.987 76.016 138.041 76.34 138.149 76.652C138.269 76.964 138.437 77.24 138.653 77.48C138.881 77.72 139.151 77.912 139.463 78.056C139.775 78.2 140.129 78.272 140.525 78.272C140.861 78.272 141.173 78.206 141.461 78.074C141.749 77.93 141.995 77.726 142.199 77.462L143.639 79.01C143.423 79.226 143.171 79.412 142.883 79.568C142.607 79.724 142.325 79.85 142.037 79.946C141.749 80.042 141.473 80.108 141.209 80.144C140.945 80.192 140.717 80.216 140.525 80.216C139.877 80.216 139.265 80.108 138.689 79.892C138.113 79.676 137.615 79.37 137.195 78.974C136.775 78.578 136.439 78.104 136.187 77.552C135.947 76.988 135.827 76.364 135.827 75.68C135.827 74.996 135.947 74.378 136.187 73.826C136.439 73.262 136.775 72.782 137.195 72.386C137.615 71.99 138.113 71.684 138.689 71.468C139.265 71.252 139.877 71.144 140.525 71.144C141.077 71.144 141.629 71.252 142.181 71.468C142.745 71.672 143.237 72.002 143.657 72.458L142.163 73.952ZM144.511 75.68C144.511 74.996 144.631 74.378 144.871 73.826C145.123 73.262 145.459 72.782 145.879 72.386C146.299 71.99 146.797 71.684 147.373 71.468C147.949 71.252 148.561 71.144 149.209 71.144C149.857 71.144 150.469 71.252 151.045 71.468C151.621 71.684 152.119 71.99 152.539 72.386C152.959 72.782 153.289 73.262 153.529 73.826C153.781 74.378 153.907 74.996 153.907 75.68C153.907 76.364 153.781 76.988 153.529 77.552C153.289 78.104 152.959 78.578 152.539 78.974C152.119 79.37 151.621 79.676 151.045 79.892C150.469 80.108 149.857 80.216 149.209 80.216C148.561 80.216 147.949 80.108 147.373 79.892C146.797 79.676 146.299 79.37 145.879 78.974C145.459 78.578 145.123 78.104 144.871 77.552C144.631 76.988 144.511 76.364 144.511 75.68ZM146.671 75.68C146.671 76.016 146.725 76.34 146.833 76.652C146.953 76.964 147.121 77.24 147.337 77.48C147.565 77.72 147.835 77.912 148.147 78.056C148.459 78.2 148.813 78.272 149.209 78.272C149.605 78.272 149.959 78.2 150.271 78.056C150.583 77.912 150.847 77.72 151.063 77.48C151.291 77.24 151.459 76.964 151.567 76.652C151.687 76.34 151.747 76.016 151.747 75.68C151.747 75.344 151.687 75.02 151.567 74.708C151.459 74.396 151.291 74.12 151.063 73.88C150.847 73.64 150.583 73.448 150.271 73.304C149.959 73.16 149.605 73.088 149.209 73.088C148.813 73.088 148.459 73.16 148.147 73.304C147.835 73.448 147.565 73.64 147.337 73.88C147.121 74.12 146.953 74.396 146.833 74.708C146.725 75.02 146.671 75.344 146.671 75.68ZM155.839 71.36H157.891V72.71H157.927C158.119 72.302 158.425 71.942 158.845 71.63C159.277 71.306 159.853 71.144 160.573 71.144C161.929 71.144 162.829 71.678 163.273 72.746C163.585 72.194 163.975 71.792 164.443 71.54C164.911 71.276 165.469 71.144 166.117 71.144C166.693 71.144 167.179 71.24 167.575 71.432C167.971 71.624 168.289 71.888 168.529 72.224C168.781 72.56 168.961 72.956 169.069 73.412C169.177 73.856 169.231 74.336 169.231 74.852V80H167.071V75.104C167.071 74.84 167.047 74.588 166.999 74.348C166.951 74.096 166.867 73.88 166.747 73.7C166.627 73.508 166.465 73.358 166.261 73.25C166.057 73.142 165.793 73.088 165.469 73.088C165.133 73.088 164.845 73.154 164.605 73.286C164.377 73.406 164.185 73.574 164.029 73.79C163.885 73.994 163.777 74.234 163.705 74.51C163.645 74.774 163.615 75.044 163.615 75.32V80H161.455V74.852C161.455 74.312 161.341 73.886 161.113 73.574C160.885 73.25 160.507 73.088 159.979 73.088C159.619 73.088 159.313 73.148 159.061 73.268C158.821 73.388 158.617 73.55 158.449 73.754C158.293 73.958 158.179 74.192 158.107 74.456C158.035 74.72 157.999 74.996 157.999 75.284V80H155.839V71.36Z" fill="white"/>
<path d="M1127.69 55.256H1131.97C1132.59 55.256 1133.17 55.316 1133.74 55.436C1134.31 55.556 1134.82 55.76 1135.25 56.048C1135.68 56.324 1136.02 56.702 1136.28 57.182C1136.54 57.65 1136.67 58.238 1136.67 58.946C1136.67 59.75 1136.53 60.398 1136.26 60.89C1135.98 61.382 1135.61 61.766 1135.14 62.042C1134.67 62.306 1134.13 62.486 1133.5 62.582C1132.89 62.678 1132.25 62.726 1131.58 62.726H1129.96V68H1127.69V55.256ZM1131.33 60.782C1131.65 60.782 1131.99 60.77 1132.33 60.746C1132.68 60.722 1133 60.65 1133.29 60.53C1133.59 60.41 1133.83 60.23 1134.01 59.99C1134.2 59.75 1134.3 59.414 1134.3 58.982C1134.3 58.586 1134.21 58.274 1134.04 58.046C1133.88 57.806 1133.66 57.626 1133.4 57.506C1133.13 57.374 1132.84 57.29 1132.51 57.254C1132.19 57.218 1131.88 57.2 1131.58 57.2H1129.96V60.782H1131.33ZM1138.5 59.36H1140.66V60.728H1140.69C1140.93 60.224 1141.27 59.834 1141.72 59.558C1142.16 59.282 1142.67 59.144 1143.25 59.144C1143.38 59.144 1143.51 59.156 1143.63 59.18C1143.76 59.204 1143.89 59.234 1144.02 59.27V61.358C1143.84 61.31 1143.66 61.274 1143.48 61.25C1143.31 61.214 1143.15 61.196 1142.98 61.196C1142.47 61.196 1142.07 61.292 1141.75 61.484C1141.45 61.664 1141.22 61.874 1141.05 62.114C1140.9 62.354 1140.79 62.594 1140.73 62.834C1140.68 63.074 1140.66 63.254 1140.66 63.374V68H1138.5V59.36ZM1145.53 59.36H1147.69V68H1145.53V59.36ZM1145.22 56.426C1145.22 56.078 1145.35 55.778 1145.6 55.526C1145.86 55.262 1146.19 55.13 1146.59 55.13C1146.99 55.13 1147.32 55.256 1147.58 55.508C1147.86 55.748 1147.99 56.054 1147.99 56.426C1147.99 56.798 1147.86 57.11 1147.58 57.362C1147.32 57.602 1146.99 57.722 1146.59 57.722C1146.19 57.722 1145.86 57.596 1145.6 57.344C1145.35 57.08 1145.22 56.774 1145.22 56.426ZM1149 59.36H1151.36L1153.66 65.408H1153.7L1156.02 59.36H1158.23L1154.83 68H1152.53L1149 59.36ZM1164.9 66.812H1164.85C1164.54 67.304 1164.14 67.664 1163.66 67.892C1163.18 68.108 1162.65 68.216 1162.08 68.216C1161.68 68.216 1161.29 68.162 1160.91 68.054C1160.53 67.946 1160.2 67.784 1159.9 67.568C1159.61 67.352 1159.38 67.082 1159.2 66.758C1159.02 66.434 1158.93 66.056 1158.93 65.624C1158.93 65.156 1159.01 64.76 1159.18 64.436C1159.35 64.1 1159.57 63.824 1159.84 63.608C1160.13 63.38 1160.46 63.2 1160.83 63.068C1161.21 62.936 1161.59 62.84 1161.99 62.78C1162.39 62.708 1162.8 62.666 1163.21 62.654C1163.62 62.63 1164 62.618 1164.36 62.618H1164.9V62.384C1164.9 61.844 1164.72 61.442 1164.34 61.178C1163.97 60.902 1163.5 60.764 1162.92 60.764C1162.47 60.764 1162.04 60.848 1161.64 61.016C1161.25 61.172 1160.91 61.388 1160.62 61.664L1159.48 60.53C1159.96 60.038 1160.52 59.684 1161.16 59.468C1161.81 59.252 1162.47 59.144 1163.16 59.144C1163.77 59.144 1164.28 59.216 1164.7 59.36C1165.12 59.492 1165.47 59.666 1165.75 59.882C1166.02 60.098 1166.23 60.35 1166.38 60.638C1166.53 60.914 1166.64 61.196 1166.7 61.484C1166.77 61.772 1166.82 62.054 1166.83 62.33C1166.84 62.594 1166.85 62.828 1166.85 63.032V68H1164.9V66.812ZM1164.78 64.13H1164.33C1164.03 64.13 1163.69 64.142 1163.32 64.166C1162.95 64.19 1162.59 64.25 1162.26 64.346C1161.93 64.43 1161.66 64.562 1161.43 64.742C1161.2 64.91 1161.09 65.15 1161.09 65.462C1161.09 65.666 1161.13 65.84 1161.21 65.984C1161.31 66.116 1161.43 66.23 1161.57 66.326C1161.72 66.422 1161.88 66.494 1162.06 66.542C1162.24 66.578 1162.42 66.596 1162.6 66.596C1163.34 66.596 1163.89 66.422 1164.24 66.074C1164.6 65.714 1164.78 65.228 1164.78 64.616V64.13ZM1175.07 61.952C1174.82 61.688 1174.56 61.478 1174.28 61.322C1174.01 61.166 1173.72 61.088 1173.44 61.088C1173.04 61.088 1172.69 61.16 1172.37 61.304C1172.06 61.448 1171.79 61.64 1171.56 61.88C1171.35 62.12 1171.18 62.396 1171.06 62.708C1170.95 63.02 1170.9 63.344 1170.9 63.68C1170.9 64.016 1170.95 64.34 1171.06 64.652C1171.18 64.964 1171.35 65.24 1171.56 65.48C1171.79 65.72 1172.06 65.912 1172.37 66.056C1172.69 66.2 1173.04 66.272 1173.44 66.272C1173.77 66.272 1174.08 66.206 1174.37 66.074C1174.66 65.93 1174.91 65.726 1175.11 65.462L1176.55 67.01C1176.33 67.226 1176.08 67.412 1175.79 67.568C1175.52 67.724 1175.24 67.85 1174.95 67.946C1174.66 68.042 1174.38 68.108 1174.12 68.144C1173.86 68.192 1173.63 68.216 1173.44 68.216C1172.79 68.216 1172.18 68.108 1171.6 67.892C1171.02 67.676 1170.53 67.37 1170.11 66.974C1169.69 66.578 1169.35 66.104 1169.1 65.552C1168.86 64.988 1168.74 64.364 1168.74 63.68C1168.74 62.996 1168.86 62.378 1169.1 61.826C1169.35 61.262 1169.69 60.782 1170.11 60.386C1170.53 59.99 1171.02 59.684 1171.6 59.468C1172.18 59.252 1172.79 59.144 1173.44 59.144C1173.99 59.144 1174.54 59.252 1175.09 59.468C1175.66 59.672 1176.15 60.002 1176.57 60.458L1175.07 61.952ZM1176.68 59.36H1179.06L1181.47 65.354H1181.51L1183.67 59.36H1185.92L1181.83 69.854C1181.67 70.262 1181.5 70.616 1181.31 70.916C1181.13 71.228 1180.91 71.486 1180.66 71.69C1180.41 71.906 1180.11 72.062 1179.76 72.158C1179.42 72.266 1179.02 72.32 1178.54 72.32C1177.97 72.32 1177.42 72.248 1176.88 72.104L1177.15 70.16C1177.32 70.22 1177.49 70.268 1177.67 70.304C1177.86 70.352 1178.06 70.376 1178.25 70.376C1178.51 70.376 1178.73 70.352 1178.91 70.304C1179.09 70.256 1179.24 70.178 1179.36 70.07C1179.5 69.974 1179.6 69.842 1179.69 69.674C1179.77 69.518 1179.86 69.326 1179.96 69.098L1180.37 68.072L1176.68 59.36ZM1192.51 59.36H1194.57V60.656H1194.6C1194.91 60.128 1195.33 59.744 1195.86 59.504C1196.39 59.264 1196.96 59.144 1197.57 59.144C1198.23 59.144 1198.83 59.264 1199.35 59.504C1199.88 59.732 1200.33 60.05 1200.7 60.458C1201.08 60.866 1201.36 61.346 1201.55 61.898C1201.74 62.45 1201.84 63.044 1201.84 63.68C1201.84 64.316 1201.74 64.91 1201.53 65.462C1201.33 66.014 1201.04 66.494 1200.67 66.902C1200.31 67.31 1199.87 67.634 1199.35 67.874C1198.84 68.102 1198.27 68.216 1197.66 68.216C1197.25 68.216 1196.89 68.174 1196.58 68.09C1196.27 68.006 1195.99 67.898 1195.75 67.766C1195.51 67.634 1195.31 67.496 1195.14 67.352C1194.97 67.196 1194.84 67.046 1194.73 66.902H1194.67V72.104H1192.51V59.36ZM1199.68 63.68C1199.68 63.344 1199.62 63.02 1199.5 62.708C1199.39 62.396 1199.22 62.12 1198.99 61.88C1198.78 61.64 1198.51 61.448 1198.2 61.304C1197.89 61.16 1197.54 61.088 1197.14 61.088C1196.74 61.088 1196.39 61.16 1196.08 61.304C1195.77 61.448 1195.5 61.64 1195.27 61.88C1195.05 62.12 1194.88 62.396 1194.76 62.708C1194.66 63.02 1194.6 63.344 1194.6 63.68C1194.6 64.016 1194.66 64.34 1194.76 64.652C1194.88 64.964 1195.05 65.24 1195.27 65.48C1195.5 65.72 1195.77 65.912 1196.08 66.056C1196.39 66.2 1196.74 66.272 1197.14 66.272C1197.54 66.272 1197.89 66.2 1198.2 66.056C1198.51 65.912 1198.78 65.72 1198.99 65.48C1199.22 65.24 1199.39 64.964 1199.5 64.652C1199.62 64.34 1199.68 64.016 1199.68 63.68ZM1203.42 63.68C1203.42 62.996 1203.54 62.378 1203.78 61.826C1204.03 61.262 1204.37 60.782 1204.79 60.386C1205.21 59.99 1205.7 59.684 1206.28 59.468C1206.86 59.252 1207.47 59.144 1208.12 59.144C1208.76 59.144 1209.38 59.252 1209.95 59.468C1210.53 59.684 1211.03 59.99 1211.45 60.386C1211.87 60.782 1212.2 61.262 1212.44 61.826C1212.69 62.378 1212.81 62.996 1212.81 63.68C1212.81 64.364 1212.69 64.988 1212.44 65.552C1212.2 66.104 1211.87 66.578 1211.45 66.974C1211.03 67.37 1210.53 67.676 1209.95 67.892C1209.38 68.108 1208.76 68.216 1208.12 68.216C1207.47 68.216 1206.86 68.108 1206.28 67.892C1205.7 67.676 1205.21 67.37 1204.79 66.974C1204.37 66.578 1204.03 66.104 1203.78 65.552C1203.54 64.988 1203.42 64.364 1203.42 63.68ZM1205.58 63.68C1205.58 64.016 1205.63 64.34 1205.74 64.652C1205.86 64.964 1206.03 65.24 1206.24 65.48C1206.47 65.72 1206.74 65.912 1207.05 66.056C1207.37 66.2 1207.72 66.272 1208.12 66.272C1208.51 66.272 1208.87 66.2 1209.18 66.056C1209.49 65.912 1209.75 65.72 1209.97 65.48C1210.2 65.24 1210.37 64.964 1210.47 64.652C1210.59 64.34 1210.65 64.016 1210.65 63.68C1210.65 63.344 1210.59 63.02 1210.47 62.708C1210.37 62.396 1210.2 62.12 1209.97 61.88C1209.75 61.64 1209.49 61.448 1209.18 61.304C1208.87 61.16 1208.51 61.088 1208.12 61.088C1207.72 61.088 1207.37 61.16 1207.05 61.304C1206.74 61.448 1206.47 61.64 1206.24 61.88C1206.03 62.12 1205.86 62.396 1205.74 62.708C1205.63 63.02 1205.58 63.344 1205.58 63.68ZM1214.87 54.392H1217.03V68H1214.87V54.392ZM1219.57 59.36H1221.73V68H1219.57V59.36ZM1219.26 56.426C1219.26 56.078 1219.39 55.778 1219.64 55.526C1219.9 55.262 1220.23 55.13 1220.63 55.13C1221.02 55.13 1221.35 55.256 1221.62 55.508C1221.89 55.748 1222.03 56.054 1222.03 56.426C1222.03 56.798 1221.89 57.11 1221.62 57.362C1221.35 57.602 1221.02 57.722 1220.63 57.722C1220.23 57.722 1219.9 57.596 1219.64 57.344C1219.39 57.08 1219.26 56.774 1219.26 56.426ZM1230.11 61.952C1229.86 61.688 1229.59 61.478 1229.32 61.322C1229.04 61.166 1228.76 61.088 1228.47 61.088C1228.08 61.088 1227.72 61.16 1227.41 61.304C1227.1 61.448 1226.83 61.64 1226.6 61.88C1226.38 62.12 1226.22 62.396 1226.1 62.708C1225.99 63.02 1225.93 63.344 1225.93 63.68C1225.93 64.016 1225.99 64.34 1226.1 64.652C1226.22 64.964 1226.38 65.24 1226.6 65.48C1226.83 65.72 1227.1 65.912 1227.41 66.056C1227.72 66.2 1228.08 66.272 1228.47 66.272C1228.81 66.272 1229.12 66.206 1229.41 66.074C1229.7 65.93 1229.94 65.726 1230.15 65.462L1231.59 67.01C1231.37 67.226 1231.12 67.412 1230.83 67.568C1230.55 67.724 1230.27 67.85 1229.98 67.946C1229.7 68.042 1229.42 68.108 1229.16 68.144C1228.89 68.192 1228.66 68.216 1228.47 68.216C1227.82 68.216 1227.21 68.108 1226.64 67.892C1226.06 67.676 1225.56 67.37 1225.14 66.974C1224.72 66.578 1224.39 66.104 1224.13 65.552C1223.89 64.988 1223.77 64.364 1223.77 63.68C1223.77 62.996 1223.89 62.378 1224.13 61.826C1224.39 61.262 1224.72 60.782 1225.14 60.386C1225.56 59.99 1226.06 59.684 1226.64 59.468C1227.21 59.252 1227.82 59.144 1228.47 59.144C1229.02 59.144 1229.58 59.252 1230.13 59.468C1230.69 59.672 1231.18 60.002 1231.6 60.458L1230.11 61.952ZM1231.72 59.36H1234.1L1236.51 65.354H1236.54L1238.7 59.36H1240.95L1236.87 69.854C1236.71 70.262 1236.54 70.616 1236.35 70.916C1236.17 71.228 1235.95 71.486 1235.7 71.69C1235.45 71.906 1235.15 72.062 1234.8 72.158C1234.46 72.266 1234.05 72.32 1233.57 72.32C1233.01 72.32 1232.46 72.248 1231.92 72.104L1232.19 70.16C1232.36 70.22 1232.53 70.268 1232.71 70.304C1232.9 70.352 1233.09 70.376 1233.29 70.376C1233.55 70.376 1233.77 70.352 1233.95 70.304C1234.13 70.256 1234.28 70.178 1234.4 70.07C1234.53 69.974 1234.64 69.842 1234.73 69.674C1234.81 69.518 1234.9 69.326 1235 69.098L1235.41 68.072L1231.72 59.36Z" fill="white"/>
<path d="M1130.09 7.308H1126.18V5.256H1136.26V7.308H1132.35V18H1130.09V7.308ZM1137.34 14.436C1137.41 15.084 1137.66 15.588 1138.09 15.948C1138.53 16.308 1139.05 16.488 1139.66 16.488C1140.2 16.488 1140.65 16.38 1141.01 16.164C1141.38 15.936 1141.71 15.654 1141.98 15.318L1143.53 16.488C1143.03 17.112 1142.46 17.556 1141.84 17.82C1141.21 18.084 1140.56 18.216 1139.88 18.216C1139.23 18.216 1138.62 18.108 1138.04 17.892C1137.46 17.676 1136.97 17.37 1136.55 16.974C1136.13 16.578 1135.79 16.104 1135.54 15.552C1135.3 14.988 1135.18 14.364 1135.18 13.68C1135.18 12.996 1135.3 12.378 1135.54 11.826C1135.79 11.262 1136.13 10.782 1136.55 10.386C1136.97 9.99 1137.46 9.684 1138.04 9.468C1138.62 9.252 1139.23 9.144 1139.88 9.144C1140.48 9.144 1141.02 9.252 1141.51 9.468C1142.02 9.672 1142.44 9.972 1142.79 10.368C1143.15 10.764 1143.43 11.256 1143.62 11.844C1143.82 12.42 1143.93 13.086 1143.93 13.842V14.436H1137.34ZM1141.77 12.816C1141.75 12.18 1141.56 11.682 1141.17 11.322C1140.79 10.95 1140.25 10.764 1139.57 10.764C1138.92 10.764 1138.41 10.95 1138.02 11.322C1137.65 11.694 1137.42 12.192 1137.34 12.816H1141.77ZM1145.95 9.36H1148.11V10.728H1148.14C1148.38 10.224 1148.72 9.834 1149.17 9.558C1149.61 9.282 1150.12 9.144 1150.7 9.144C1150.83 9.144 1150.96 9.156 1151.08 9.18C1151.21 9.204 1151.34 9.234 1151.47 9.27V11.358C1151.29 11.31 1151.11 11.274 1150.93 11.25C1150.76 11.214 1150.6 11.196 1150.43 11.196C1149.92 11.196 1149.52 11.292 1149.2 11.484C1148.9 11.664 1148.67 11.874 1148.5 12.114C1148.35 12.354 1148.24 12.594 1148.18 12.834C1148.13 13.074 1148.11 13.254 1148.11 13.374V18H1145.95V9.36ZM1153.17 9.36H1155.22V10.71H1155.26C1155.45 10.302 1155.76 9.942 1156.18 9.63C1156.61 9.306 1157.18 9.144 1157.9 9.144C1159.26 9.144 1160.16 9.678 1160.6 10.746C1160.92 10.194 1161.31 9.792 1161.77 9.54C1162.24 9.276 1162.8 9.144 1163.45 9.144C1164.02 9.144 1164.51 9.24 1164.91 9.432C1165.3 9.624 1165.62 9.888 1165.86 10.224C1166.11 10.56 1166.29 10.956 1166.4 11.412C1166.51 11.856 1166.56 12.336 1166.56 12.852V18H1164.4V13.104C1164.4 12.84 1164.38 12.588 1164.33 12.348C1164.28 12.096 1164.2 11.88 1164.08 11.7C1163.96 11.508 1163.8 11.358 1163.59 11.25C1163.39 11.142 1163.12 11.088 1162.8 11.088C1162.46 11.088 1162.18 11.154 1161.94 11.286C1161.71 11.406 1161.52 11.574 1161.36 11.79C1161.22 11.994 1161.11 12.234 1161.04 12.51C1160.98 12.774 1160.95 13.044 1160.95 13.32V18H1158.79V12.852C1158.79 12.312 1158.67 11.886 1158.44 11.574C1158.22 11.25 1157.84 11.088 1157.31 11.088C1156.95 11.088 1156.64 11.148 1156.39 11.268C1156.15 11.388 1155.95 11.55 1155.78 11.754C1155.62 11.958 1155.51 12.192 1155.44 12.456C1155.37 12.72 1155.33 12.996 1155.33 13.284V18H1153.17V9.36ZM1173.53 11.754C1173.11 11.166 1172.55 10.872 1171.84 10.872C1171.55 10.872 1171.27 10.944 1170.99 11.088C1170.72 11.232 1170.58 11.466 1170.58 11.79C1170.58 12.054 1170.69 12.246 1170.92 12.366C1171.15 12.486 1171.44 12.588 1171.78 12.672C1172.13 12.756 1172.5 12.846 1172.9 12.942C1173.31 13.026 1173.69 13.164 1174.03 13.356C1174.38 13.536 1174.67 13.788 1174.9 14.112C1175.13 14.436 1175.24 14.88 1175.24 15.444C1175.24 15.96 1175.13 16.398 1174.9 16.758C1174.68 17.106 1174.39 17.388 1174.03 17.604C1173.69 17.82 1173.29 17.976 1172.85 18.072C1172.4 18.168 1171.96 18.216 1171.51 18.216C1170.84 18.216 1170.22 18.12 1169.66 17.928C1169.1 17.736 1168.59 17.388 1168.15 16.884L1169.59 15.534C1169.86 15.846 1170.16 16.104 1170.47 16.308C1170.79 16.5 1171.18 16.596 1171.64 16.596C1171.8 16.596 1171.96 16.578 1172.13 16.542C1172.29 16.506 1172.45 16.446 1172.59 16.362C1172.74 16.278 1172.85 16.176 1172.94 16.056C1173.03 15.924 1173.08 15.774 1173.08 15.606C1173.08 15.306 1172.97 15.084 1172.74 14.94C1172.51 14.796 1172.22 14.682 1171.87 14.598C1171.53 14.502 1171.15 14.418 1170.74 14.346C1170.34 14.262 1169.97 14.136 1169.62 13.968C1169.28 13.788 1168.99 13.542 1168.76 13.23C1168.53 12.918 1168.42 12.486 1168.42 11.934C1168.42 11.454 1168.51 11.04 1168.71 10.692C1168.91 10.332 1169.17 10.038 1169.5 9.81C1169.82 9.582 1170.19 9.414 1170.61 9.306C1171.03 9.198 1171.46 9.144 1171.89 9.144C1172.47 9.144 1173.04 9.246 1173.6 9.45C1174.17 9.642 1174.62 9.978 1174.97 10.458L1173.53 11.754ZM1181.24 11.196V9.36H1183.02V6.858H1185.18V9.36H1187.56V11.196H1185.18V14.976C1185.18 15.408 1185.26 15.75 1185.41 16.002C1185.58 16.254 1185.91 16.38 1186.39 16.38C1186.58 16.38 1186.79 16.362 1187.02 16.326C1187.24 16.278 1187.42 16.206 1187.56 16.11V17.928C1187.33 18.036 1187.05 18.108 1186.71 18.144C1186.39 18.192 1186.1 18.216 1185.85 18.216C1185.27 18.216 1184.8 18.15 1184.42 18.018C1184.06 17.898 1183.78 17.712 1183.56 17.46C1183.36 17.196 1183.21 16.872 1183.13 16.488C1183.06 16.104 1183.02 15.66 1183.02 15.156V11.196H1181.24ZM1188.81 13.68C1188.81 12.996 1188.93 12.378 1189.17 11.826C1189.42 11.262 1189.76 10.782 1190.18 10.386C1190.6 9.99 1191.1 9.684 1191.67 9.468C1192.25 9.252 1192.86 9.144 1193.51 9.144C1194.16 9.144 1194.77 9.252 1195.34 9.468C1195.92 9.684 1196.42 9.99 1196.84 10.386C1197.26 10.782 1197.59 11.262 1197.83 11.826C1198.08 12.378 1198.21 12.996 1198.21 13.68C1198.21 14.364 1198.08 14.988 1197.83 15.552C1197.59 16.104 1197.26 16.578 1196.84 16.974C1196.42 17.37 1195.92 17.676 1195.34 17.892C1194.77 18.108 1194.16 18.216 1193.51 18.216C1192.86 18.216 1192.25 18.108 1191.67 17.892C1191.1 17.676 1190.6 17.37 1190.18 16.974C1189.76 16.578 1189.42 16.104 1189.17 15.552C1188.93 14.988 1188.81 14.364 1188.81 13.68ZM1190.97 13.68C1190.97 14.016 1191.02 14.34 1191.13 14.652C1191.25 14.964 1191.42 15.24 1191.64 15.48C1191.86 15.72 1192.13 15.912 1192.45 16.056C1192.76 16.2 1193.11 16.272 1193.51 16.272C1193.9 16.272 1194.26 16.2 1194.57 16.056C1194.88 15.912 1195.15 15.72 1195.36 15.48C1195.59 15.24 1195.76 14.964 1195.87 14.652C1195.99 14.34 1196.05 14.016 1196.05 13.68C1196.05 13.344 1195.99 13.02 1195.87 12.708C1195.76 12.396 1195.59 12.12 1195.36 11.88C1195.15 11.64 1194.88 11.448 1194.57 11.304C1194.26 11.16 1193.9 11.088 1193.51 11.088C1193.11 11.088 1192.76 11.16 1192.45 11.304C1192.13 11.448 1191.86 11.64 1191.64 11.88C1191.42 12.12 1191.25 12.396 1191.13 12.708C1191.02 13.02 1190.97 13.344 1190.97 13.68ZM1213.44 18H1211.39V16.614H1211.35C1211.15 17.046 1210.83 17.424 1210.41 17.748C1209.99 18.06 1209.42 18.216 1208.7 18.216C1208.13 18.216 1207.64 18.126 1207.23 17.946C1206.83 17.754 1206.51 17.502 1206.26 17.19C1206 16.866 1205.82 16.5 1205.72 16.092C1205.61 15.684 1205.55 15.258 1205.55 14.814V9.36H1207.71V13.734C1207.71 13.974 1207.73 14.244 1207.75 14.544C1207.77 14.832 1207.83 15.108 1207.93 15.372C1208.04 15.624 1208.19 15.84 1208.4 16.02C1208.61 16.188 1208.91 16.272 1209.3 16.272C1209.66 16.272 1209.96 16.212 1210.2 16.092C1210.45 15.972 1210.65 15.81 1210.81 15.606C1210.98 15.402 1211.1 15.168 1211.17 14.904C1211.24 14.64 1211.28 14.364 1211.28 14.076V9.36H1213.44V18ZM1220.5 11.754C1220.08 11.166 1219.51 10.872 1218.81 10.872C1218.52 10.872 1218.24 10.944 1217.96 11.088C1217.68 11.232 1217.55 11.466 1217.55 11.79C1217.55 12.054 1217.66 12.246 1217.89 12.366C1218.12 12.486 1218.4 12.588 1218.75 12.672C1219.1 12.756 1219.47 12.846 1219.87 12.942C1220.28 13.026 1220.65 13.164 1221 13.356C1221.35 13.536 1221.64 13.788 1221.87 14.112C1222.09 14.436 1222.21 14.88 1222.21 15.444C1222.21 15.96 1222.09 16.398 1221.87 16.758C1221.65 17.106 1221.36 17.388 1221 17.604C1220.65 17.82 1220.26 17.976 1219.81 18.072C1219.37 18.168 1218.93 18.216 1218.48 18.216C1217.81 18.216 1217.19 18.12 1216.63 17.928C1216.06 17.736 1215.56 17.388 1215.12 16.884L1216.56 15.534C1216.83 15.846 1217.13 16.104 1217.44 16.308C1217.76 16.5 1218.15 16.596 1218.61 16.596C1218.76 16.596 1218.93 16.578 1219.09 16.542C1219.26 16.506 1219.42 16.446 1219.56 16.362C1219.71 16.278 1219.82 16.176 1219.9 16.056C1220 15.924 1220.05 15.774 1220.05 15.606C1220.05 15.306 1219.93 15.084 1219.71 14.94C1219.48 14.796 1219.19 14.682 1218.84 14.598C1218.49 14.502 1218.12 14.418 1217.71 14.346C1217.31 14.262 1216.94 14.136 1216.59 13.968C1216.24 13.788 1215.96 13.542 1215.73 13.23C1215.5 12.918 1215.39 12.486 1215.39 11.934C1215.39 11.454 1215.48 11.04 1215.67 10.692C1215.88 10.332 1216.14 10.038 1216.47 9.81C1216.79 9.582 1217.16 9.414 1217.58 9.306C1218 9.198 1218.43 9.144 1218.86 9.144C1219.44 9.144 1220.01 9.246 1220.57 9.45C1221.13 9.642 1221.59 9.978 1221.94 10.458L1220.5 11.754ZM1225.62 14.436C1225.69 15.084 1225.94 15.588 1226.37 15.948C1226.8 16.308 1227.33 16.488 1227.94 16.488C1228.48 16.488 1228.93 16.38 1229.29 16.164C1229.66 15.936 1229.98 15.654 1230.26 15.318L1231.81 16.488C1231.3 17.112 1230.74 17.556 1230.12 17.82C1229.49 18.084 1228.84 18.216 1228.15 18.216C1227.51 18.216 1226.89 18.108 1226.32 17.892C1225.74 17.676 1225.24 17.37 1224.82 16.974C1224.4 16.578 1224.07 16.104 1223.82 15.552C1223.58 14.988 1223.46 14.364 1223.46 13.68C1223.46 12.996 1223.58 12.378 1223.82 11.826C1224.07 11.262 1224.4 10.782 1224.82 10.386C1225.24 9.99 1225.74 9.684 1226.32 9.468C1226.89 9.252 1227.51 9.144 1228.15 9.144C1228.75 9.144 1229.3 9.252 1229.79 9.468C1230.3 9.672 1230.72 9.972 1231.07 10.368C1231.43 10.764 1231.71 11.256 1231.9 11.844C1232.1 12.42 1232.2 13.086 1232.2 13.842V14.436H1225.62ZM1230.04 12.816C1230.03 12.18 1229.83 11.682 1229.45 11.322C1229.07 10.95 1228.53 10.764 1227.85 10.764C1227.2 10.764 1226.68 10.95 1226.3 11.322C1225.93 11.694 1225.7 12.192 1225.62 12.816H1230.04Z" fill="white"/>
<path d="M3.75697 5.35522L9.12656 13.5532V5.35522H13.3678V20.8224H9.61085L4.24125 12.6021V20.8224H0V5.35522H3.75697Z" fill="white"/>
<path d="M33.0796 13.0881C33.0796 17.5515 29.2353 21.1537 24.7719 21.1537C20.3085 21.1537 16.4417 17.549 16.4417 13.0881C16.4417 8.62716 20.3085 5 24.7719 5C29.2353 5 33.0796 8.62466 33.0796 13.0881ZM29.0156 13.0881C29.0156 10.7465 27.1159 8.84684 24.7744 8.84684C22.4328 8.84684 20.5306 10.744 20.5306 13.0881C20.5306 15.4296 22.4303 17.3094 24.7719 17.3094C27.1134 17.3094 29.0156 15.4296 29.0156 13.0881Z" fill="white"/>
<path d="M48.5481 8.93246H44.0172V20.8199H39.796V8.93246H35.2651V5.35522H48.5456V8.93246H48.5481Z" fill="white"/>
<path d="M59.7975 18.0815H54.8923L53.9412 20.8224H49.2356L55.0695 5.35522H59.6003L65.4567 20.8224H60.7511L59.7975 18.0815ZM58.5369 14.5018L57.3437 11.0993L56.1504 14.5018H58.5369Z" fill="white"/>
<path d="M81.0107 16.2267C81.0107 18.9227 79.2209 20.8224 75.1344 20.8224H68.5715V5.35522H74.8897C78.2273 5.35522 80.0147 7.05772 80.0147 9.61895C80.0147 10.5026 79.6602 11.7833 78.5793 12.5796C80.3692 13.286 81.0107 14.8113 81.0107 16.2267ZM72.7903 8.93246V11.0543H74.9122C75.8633 11.0543 76.3051 10.59 76.3051 9.99339C76.3051 9.39677 75.8633 8.93246 74.9122 8.93246H72.7903ZM77.2113 15.9371C77.2113 15.2082 76.6147 14.6341 75.5313 14.6341H72.7903V17.2402H75.5313C76.6147 17.2427 77.2113 16.6461 77.2113 15.9371Z" fill="white"/>
</svg>
